# xmcd
#
# Track frame offsets: 
#        150
#        15527
#        29734
#        45066
#        58282
#        68443
#        90536
#        106799
#        127065
#        143820
#        157785
#        175015
#        191177
#
# Disc length: 2760 seconds
#
# Revision: 0
# Processed by: cddbd v1.5.2PL0 Copyright (c) Steve Scherf et al.
# Submitted via: ExactAudioCopyFreeDBPlugin 1.0
#
DISCID=a30ac60d
DTITLE=La Tchatche - Rien à Dire
DYEAR=2012
DGENRE=Jazz manouche
TTITLE0=Djangology
TTITLE1=Bossa Dorado
TTITLE2=The Man I Love
TTITLE3=Caravan
TTITLE4=Joseph Joseph
TTITLE5=Les Fenetres de Moscou
TTITLE6=All Of Me
TTITLE7=Misirlou
TTITLE8=Cry Me A River
TTITLE9=Lulu Swing
TTITLE10=Viente Anos
TTITLE11=Petite Fleur
TTITLE12=Czardas
EXTD=
EXTT0=
EXTT1=
EXTT2=
EXTT3=
EXTT4=
EXTT5=
EXTT6=
EXTT7=
EXTT8=
EXTT9=
EXTT10=
EXTT11=
EXTT12=
PLAYORDER=
